<svg width="500" height="500" xmlns="http://www.w3.org/2000/svg"><path d="M0 768 2 770 2 775 1 776 1 778 2 779 1 780 1 782 2 783 2 784 1 785 1 786 2 787 1 788 1 793 2 794 2 796 1 797 0 797 2 799 1 798 1 797 2 796 2 794 1 793 1 788 2 787 1 786 1 785 2 784 2 783 1 782 1 780 2 779 1 778 1 776 2 775 2 770 1 769 1 768 " style="stroke:pink"/><path d="M1 695 1 731 2 732 1 733 1 736 0 737 1 738 1 742 2 743 1 744 1 745 2 746 2 747 1 748 1 749 2 750 2 751 1 752 2 753 1 754 1 757 2 758 2 761 1 762 2 763 2 764 1 765 1 766 1 765 2 764 2 763 1 762 2 761 2 758 1 757 1 754 2 753 1 752 2 751 2 750 1 749 1 748 2 747 2 746 1 745 1 744 2 743 1 742 1 733 2 732 1 731 " style="stroke:pink"/><path d="M285 636 284 637 283 637 282 638 281 638 280 639 279 639 278 640 277 640 276 641 275 641 276 641 277 640 278 640 279 639 280 639 281 638 282 638 283 637 284 637 " style="stroke:pink"/><path d="M287 635 " style="stroke:pink"/><path d="M292 632 " style="stroke:pink"/><path d="M300 627 299 628 298 628 296 630 295 630 294 631 295 630 296 630 297 629 298 629 " style="stroke:pink"/><path d="M303 625 302 626 " style="stroke:pink"/><path d="M305 624 " style="stroke:pink"/><path d="M309 621 308 622 " style="stroke:pink"/><path d="M550 540 550 544 551 545 551 548 552 549 552 551 552 549 551 548 551 545 550 544 " style="stroke:pink"/><path d="M240 457 238 459 238 460 237 461 237 462 236 463 236 464 235 465 235 466 234 467 234 468 233 469 233 471 232 472 232 473 231 474 231 475 230 476 230 477 229 478 229 479 228 480 228 481 227 482 227 484 226 485 226 486 225 487 225 488 224 489 224 490 223 491 223 493 222 494 222 495 221 496 221 497 220 498 220 500 219 501 219 502 218 503 218 504 217 505 217 506 216 507 216 509 215 510 215 511 214 512 214 513 213 514 213 516 212 517 212 518 211 519 211 520 210 521 210 523 209 524 209 526 208 527 208 528 207 529 207 531 206 532 206 533 205 534 205 536 204 537 204 538 203 539 203 541 202 542 202 543 201 544 201 546 200 547 200 548 199 549 199 551 198 552 198 554 197 555 197 557 196 558 196 559 195 560 195 562 194 563 194 565 193 566 193 568 192 569 192 572 191 573 191 575 190 576 190 579 189 580 189 582 188 583 188 586 187 587 187 589 186 590 186 593 185 594 185 597 184 598 184 601 183 602 183 606 182 607 182 610 181 611 181 614 180 615 180 620 179 621 179 625 178 626 178 630 177 631 177 635 176 636 176 642 175 643 175 649 174 650 174 655 173 656 173 659 172 660 172 661 173 662 181 662 182 661 192 661 193 660 199 660 200 659 206 659 207 658 211 658 212 657 216 657 217 656 220 656 221 655 225 655 226 654 229 654 230 653 232 653 233 652 236 652 237 651 239 651 240 650 243 650 244 649 246 649 247 648 248 648 249 647 251 647 252 646 254 646 255 645 257 645 258 644 260 644 261 643 262 643 263 642 264 642 265 641 266 641 267 640 269 640 270 639 271 639 272 638 273 638 274 637 275 637 276 636 277 636 278 635 279 635 280 634 282 634 283 633 284 633 286 631 287 631 288 630 289 630 291 628 292 628 293 627 294 627 296 625 297 625 298 624 299 624 301 622 302 622 304 620 305 620 307 618 308 618 311 615 312 615 316 611 317 611 336 592 336 591 339 588 339 587 341 585 341 584 343 582 343 581 345 579 345 578 347 576 347 575 348 574 348 573 349 572 349 571 350 570 350 569 351 568 351 565 352 564 346 558 346 557 340 551 340 550 333 543 333 542 326 535 326 534 319 527 319 526 312 519 312 518 305 511 305 510 298 503 298 502 290 494 290 493 284 487 284 486 277 479 277 478 269 470 269 469 263 463 263 462 260 459 258 459 257 458 251 458 250 457 " style="stroke:pink"/><path d="M241 457 250 457 251 458 257 458 258 459 259 459 263 463 263 464 269 470 269 471 277 479 277 480 284 487 284 488 290 494 290 495 298 503 298 504 305 511 305 512 312 519 312 520 319 527 319 528 326 535 326 536 333 543 333 544 340 551 340 552 346 558 346 559 351 564 351 567 350 568 350 569 349 570 349 571 348 572 348 573 347 574 347 575 345 577 345 578 343 580 343 581 341 583 341 584 339 586 339 587 336 590 336 591 316 611 315 611 311 615 310 615 307 618 306 618 304 620 303 620 301 622 300 622 298 624 297 624 296 625 295 625 293 627 292 627 291 628 290 628 288 630 287 630 286 631 285 631 283 633 282 633 281 634 279 634 277 636 275 636 274 637 273 637 272 638 271 638 270 639 269 639 268 640 267 640 266 641 264 641 262 643 260 643 259 644 258 644 257 645 255 645 254 646 252 646 251 647 249 647 248 648 247 648 246 649 244 649 243 650 240 650 239 651 237 651 236 652 233 652 232 653 230 653 229 654 226 654 225 655 221 655 220 656 217 656 216 657 212 657 211 658 207 658 206 659 200 659 199 660 193 660 192 661 182 661 181 662 174 662 172 660 173 659 173 656 174 655 174 650 175 649 175 643 176 642 176 636 177 635 177 631 178 630 178 626 179 625 179 621 180 620 180 615 181 614 181 611 182 610 182 607 183 606 183 602 184 601 184 598 185 597 185 594 186 593 186 590 187 589 187 587 188 586 188 583 189 582 189 580 190 579 190 576 191 575 191 573 192 572 192 569 193 568 193 566 194 565 194 563 195 562 195 560 196 559 196 558 197 557 197 555 198 554 198 552 199 551 199 549 200 548 200 547 201 546 201 544 202 543 202 542 203 541 203 539 204 538 204 537 205 536 205 534 206 533 206 532 207 531 207 529 208 528 208 527 209 526 209 524 210 523 210 522 211 521 211 519 212 518 212 517 213 516 213 515 214 514 214 512 215 511 215 510 216 509 216 508 217 507 217 505 219 503 219 501 220 500 220 498 222 496 222 494 223 493 223 492 224 491 224 490 225 489 225 488 226 487 226 486 227 485 227 483 228 482 228 481 229 480 229 479 230 478 230 477 231 476 231 475 232 474 232 473 233 472 233 470 234 469 234 468 235 467 235 466 236 465 236 464 237 463 237 462 238 461 238 460 " style="stroke:pink"/><path d="M200 451 200 452 199 453 201 455 201 456 201 454 200 453 200 452 201 451 " style="stroke:pink"/><path d="M190 437 192 439 " style="stroke:pink"/><path d="M525 436 525 438 526 439 526 440 527 441 527 446 528 447 528 450 529 451 529 454 530 455 530 458 531 459 531 462 532 463 532 466 533 467 533 470 534 471 534 473 535 474 535 478 536 479 536 481 537 482 537 485 538 486 538 489 539 490 539 493 540 494 540 497 541 498 541 502 542 503 542 505 543 506 543 510 544 511 544 515 545 516 545 519 546 520 546 525 547 526 547 530 548 531 548 533 549 534 549 537 550 538 549 537 549 534 548 533 548 531 547 530 547 526 546 525 546 520 545 519 545 516 544 515 544 511 543 510 543 506 542 505 542 503 541 502 541 498 540 497 540 494 539 493 539 490 538 489 538 486 537 485 537 482 536 481 536 479 535 478 535 474 534 473 534 471 533 470 533 467 532 466 532 463 531 462 531 459 530 458 530 455 529 454 529 451 528 450 528 447 527 446 527 441 526 440 526 439 525 438 " style="stroke:pink"/><path d="M524 429 524 432 " style="stroke:pink"/><path d="M523 426 524 427 " style="stroke:pink"/><path d="M183 398 181 400 181 401 180 402 180 403 179 404 179 405 177 407 177 408 175 410 175 412 173 414 173 415 172 416 172 417 171 418 171 419 170 420 171 419 171 418 173 416 173 415 175 413 175 411 177 409 177 408 178 407 178 406 180 404 180 403 181 402 181 401 184 398 187 398 188 399 189 399 190 400 191 400 192 401 193 401 194 402 195 402 196 403 197 403 199 405 200 405 201 406 201 405 200 405 198 403 197 403 196 402 195 402 194 401 193 401 192 400 191 400 190 399 188 399 187 398 " style="stroke:pink"/><path d="M501 316 " style="stroke:pink"/><path d="M284 283 " style="stroke:pink"/><path d="M175 278 174 279 173 279 170 282 168 280 167 280 166 279 163 279 162 280 162 283 159 286 156 286 155 287 155 289 156 290 156 295 157 296 157 297 162 302 163 302 164 303 165 303 166 304 172 304 173 303 175 303 180 298 180 296 181 295 181 286 180 285 180 283 178 281 178 280 176 278 " style="stroke:pink"/><path d="M175 278 178 281 178 282 180 284 180 285 181 286 181 295 180 296 180 297 174 303 173 303 172 304 167 304 166 303 165 303 164 302 163 302 157 296 157 295 156 294 156 290 155 289 155 287 156 286 160 286 161 285 161 284 162 283 162 281 164 279 165 279 166 280 167 280 169 282 171 282 " style="stroke:pink"/><path d="M257 201 258 201 " style="stroke:pink"/><path d="M254 198 255 199 255 200 254 201 254 202 255 203 255 204 258 204 259 203 261 203 262 202 263 203 262 202 261 202 260 203 258 203 257 204 256 204 254 202 255 201 255 199 " style="stroke:pink"/><path d="M174 198 175 199 174 200 174 202 175 203 178 203 180 201 180 200 179 201 178 200 176 200 " style="stroke:pink"/><path d="M174 201 175 200 178 200 179 201 177 203 176 203 " style="stroke:pink"/><path d="M258 190 258 191 257 192 257 193 256 194 256 197 258 199 259 198 260 199 260 200 260 199 261 198 261 193 260 192 260 191 259 191 " style="stroke:pink"/><path d="M259 191 261 193 261 197 260 198 257 198 256 197 256 194 " style="stroke:pink"/><path d="M179 190 178 191 177 191 176 192 176 194 175 195 176 196 176 197 178 197 179 198 181 198 181 196 182 195 182 193 183 192 183 190 " style="stroke:pink"/><path d="M179 191 180 190 182 190 183 191 183 192 182 193 182 195 181 196 181 197 180 198 179 198 178 197 177 197 175 195 176 194 176 193 178 191 " style="stroke:pink"/><path d="M273 187 272 188 269 188 268 189 267 189 267 192 269 194 270 194 272 196 272 198 269 201 266 201 265 200 265 196 266 195 267 196 267 197 268 198 269 198 266 195 266 194 265 194 265 201 270 201 271 200 271 199 272 198 272 196 273 195 273 191 274 190 274 189 273 188 " style="stroke:pink"/><path d="M269 189 270 188 273 188 274 189 274 190 273 191 273 194 272 195 271 195 267 191 267 190 268 189 " style="stroke:pink"/><path d="M190 187 188 189 189 190 189 194 189 189 191 187 193 189 193 191 192 192 192 194 191 195 191 196 190 197 189 197 188 196 186 196 186 198 185 199 186 200 190 200 190 197 192 195 192 192 193 191 193 188 192 187 " style="stroke:pink"/><path d="M186 197 187 196 188 196 190 198 190 199 189 200 187 200 186 199 " style="stroke:pink"/><path d="M176 185 " style="stroke:pink"/><path d="M190 184 191 184 " style="stroke:pink"/><path d="M176 183 " style="stroke:pink"/><path d="M230 182 229 183 228 183 228 185 231 188 231 187 228 184 230 182 232 184 233 183 231 183 " style="stroke:pink"/><path d="M170 182 170 186 171 186 172 187 173 186 174 186 174 185 173 184 173 183 172 183 171 182 " style="stroke:pink"/><path d="M170 183 171 182 174 185 172 187 170 185 " style="stroke:pink"/><path d="M250 180 251 181 251 187 255 187 256 186 255 185 255 184 254 183 253 183 255 185 255 186 254 187 252 187 251 186 251 181 " style="stroke:pink"/><path d="M182 178 182 180 181 181 181 183 182 183 183 184 185 184 186 183 186 181 184 179 183 179 " style="stroke:pink"/><path d="M183 179 184 180 185 180 186 181 186 182 184 184 183 184 181 182 181 181 " style="stroke:pink"/><path d="M235 177 234 178 232 178 231 179 229 179 228 180 226 180 225 181 221 181 220 182 219 182 219 183 218 184 218 187 217 188 217 190 216 191 217 190 217 188 218 187 218 184 220 182 221 182 222 181 225 181 226 180 229 180 230 179 231 179 232 178 235 178 236 179 236 182 235 183 235 185 234 186 234 188 231 191 229 191 228 192 225 192 224 193 220 193 219 194 218 193 217 193 218 193 219 194 220 193 224 193 225 192 228 192 229 191 232 191 233 190 233 189 234 188 234 187 235 186 235 183 236 182 236 178 " style="stroke:pink"/><path d="M253 175 252 176 252 178 254 180 255 180 256 181 256 182 257 182 257 181 258 180 258 177 257 176 257 175 " style="stroke:pink"/><path d="M254 175 256 175 258 177 258 179 256 181 254 179 253 179 252 178 252 177 " style="stroke:pink"/><path d="M175 174 174 175 173 175 172 176 171 176 172 177 172 179 174 181 177 181 178 180 178 177 179 176 178 175 178 174 " style="stroke:pink"/><path d="M175 174 177 174 179 176 178 177 178 179 176 181 175 181 172 178 172 177 " style="stroke:pink"/><path d="M269 170 268 171 267 171 266 172 264 172 262 174 263 175 262 176 262 178 261 179 261 181 262 182 262 184 266 184 266 183 267 182 264 179 264 180 265 181 266 181 267 182 265 184 263 184 262 183 262 182 261 181 261 180 262 179 262 176 263 175 264 176 265 176 266 177 267 177 268 178 268 180 268 178 269 177 269 174 270 173 269 172 " style="stroke:pink"/><path d="M266 172 267 171 268 171 270 173 269 174 269 176 268 177 266 177 265 176 264 176 263 175 263 174 265 172 " style="stroke:pink"/><path d="M186 170 183 173 182 173 181 172 182 173 182 174 183 173 184 173 185 174 185 176 185 174 184 173 186 171 187 171 189 173 188 174 188 176 187 177 187 179 187 178 188 177 188 174 189 173 188 172 188 170 187 171 " style="stroke:pink"/><path d="M258 169 256 171 257 171 259 169 " style="stroke:pink"/><path d="M232 161 232 166 231 167 231 168 230 169 230 172 228 174 224 174 223 175 220 175 219 176 213 176 219 176 220 175 223 175 224 174 229 174 229 173 230 172 230 170 231 169 231 167 232 166 " style="stroke:pink"/><path d="M230 161 229 162 226 162 225 163 223 163 222 164 219 164 218 165 216 165 215 166 215 167 214 168 214 171 213 172 213 174 213 172 214 171 214 168 217 165 218 165 219 164 222 164 223 163 225 163 226 162 229 162 " style="stroke:pink"/><path d="M337 147 336 148 336 150 335 151 335 152 335 151 336 150 336 148 " style="stroke:pink"/><path d="M331 144 330 145 327 145 326 146 325 146 326 147 325 148 326 148 328 150 328 153 329 153 330 154 330 156 332 156 331 156 330 155 330 154 328 152 328 150 330 148 329 149 328 149 326 147 328 145 329 145 330 146 330 145 " style="stroke:pink"/><path d="M341 142 340 143 338 143 337 144 335 144 334 145 333 145 333 151 333 146 335 144 336 145 337 144 338 144 339 143 340 143 341 142 342 143 343 143 344 144 344 145 348 149 348 150 346 152 344 152 343 153 341 153 340 154 338 154 337 155 336 154 335 154 336 154 337 155 338 154 340 154 341 153 343 153 344 152 346 152 347 151 348 151 348 148 344 144 344 143 343 142 342 143 " style="stroke:pink"/><path d="M319 132 322 132 323 133 323 136 324 137 324 138 325 138 326 139 326 138 325 138 323 136 323 132 " style="stroke:pink"/><path d="M463 126 463 127 " style="stroke:pink"/><path d="M333 126 332 127 328 127 327 128 324 128 323 129 322 129 321 130 320 130 322 130 323 129 324 129 325 128 327 128 328 127 332 127 333 126 337 126 344 133 342 135 339 135 338 136 336 136 335 137 333 137 332 138 330 136 330 131 326 131 325 132 326 131 329 131 330 132 330 137 331 137 332 138 333 137 335 137 336 136 338 136 339 135 343 135 344 134 344 132 338 126 " style="stroke:pink"/><path d="M462 124 " style="stroke:pink"/><path d="M431 119 429 121 428 121 426 123 425 123 423 125 422 125 421 126 420 126 418 128 417 128 415 130 414 130 412 132 411 132 409 134 408 134 405 137 404 137 401 140 400 140 398 142 397 142 394 145 393 145 391 147 390 147 387 150 386 150 381 155 380 155 376 159 375 159 370 164 369 164 362 171 361 171 360 172 360 173 358 175 357 175 334 198 334 199 321 212 321 213 314 220 314 221 305 230 305 231 299 237 299 238 293 244 293 245 286 252 286 253 282 257 282 258 279 261 279 262 278 263 278 264 279 265 279 267 281 269 281 270 283 272 283 273 284 274 284 276 287 279 287 280 288 281 289 281 287 279 287 278 284 275 284 273 282 271 282 270 281 269 281 268 279 266 279 265 278 264 278 263 282 259 282 258 286 254 286 253 293 246 293 245 299 239 299 238 305 232 305 231 314 222 314 221 321 214 321 213 334 200 334 199 358 175 359 175 360 174 360 173 362 171 363 171 370 164 371 164 376 159 377 159 381 155 382 155 387 150 388 150 391 147 392 147 394 145 395 145 398 142 399 142 401 140 402 140 405 137 406 137 409 134 410 134 412 132 413 132 415 130 416 130 418 128 419 128 421 126 422 126 423 125 424 125 426 123 427 123 429 121 430 121 432 119 433 119 435 121 435 123 436 124 436 125 437 126 437 128 438 129 438 130 439 131 439 133 440 134 440 135 441 136 441 139 442 140 442 142 443 143 443 145 444 146 444 149 445 150 445 153 446 154 446 156 447 157 447 160 448 161 448 165 449 166 449 169 450 170 450 174 451 175 451 179 452 180 452 186 453 187 453 193 454 194 454 203 455 204 455 237 454 238 454 247 453 248 453 255 452 256 452 261 451 262 451 266 450 267 450 269 449 270 449 273 448 274 448 277 447 278 447 280 446 281 446 283 445 284 445 286 444 287 444 288 443 289 443 290 442 291 442 293 441 294 441 295 440 296 440 297 439 298 439 299 438 300 438 301 437 302 437 303 436 304 436 305 434 307 434 308 433 309 433 310 431 312 431 313 429 315 429 316 425 320 425 321 421 325 420 324 419 325 418 325 417 324 415 324 414 323 411 323 410 322 409 322 408 321 404 321 403 320 402 320 401 319 398 319 397 318 395 318 394 317 393 317 392 316 389 316 388 315 386 315 385 314 382 314 381 313 379 313 378 312 376 312 375 311 372 311 371 310 370 310 369 309 366 309 365 308 363 308 362 307 360 307 359 306 357 306 356 305 353 305 352 304 350 304 349 303 347 303 346 302 344 302 343 301 340 301 339 300 337 300 336 299 334 299 333 298 331 298 330 297 327 297 326 296 324 296 323 295 321 295 320 294 318 294 317 293 314 293 313 292 311 292 310 291 308 291 307 290 305 290 304 289 302 289 301 288 298 288 297 287 296 287 295 286 293 286 292 285 290 285 288 283 288 284 289 285 292 285 293 286 295 286 296 287 297 287 298 288 301 288 302 289 304 289 305 290 307 290 308 291 310 291 311 292 313 292 314 293 317 293 318 294 320 294 321 295 323 295 324 296 326 296 327 297 330 297 331 298 333 298 334 299 336 299 337 300 339 300 340 301 343 301 344 302 346 302 347 303 349 303 350 304 352 304 353 305 356 305 357 306 359 306 360 307 362 307 363 308 365 308 366 309 369 309 370 310 371 310 372 311 375 311 376 312 378 312 379 313 381 313 382 314 385 314 386 315 388 315 389 316 392 316 393 317 394 317 395 318 397 318 398 319 401 319 402 320 403 320 404 321 408 321 409 322 410 322 411 323 414 323 415 324 417 324 418 325 419 325 420 324 421 325 422 325 425 322 425 321 429 317 429 316 431 314 431 313 433 311 433 310 434 309 434 308 436 306 436 305 437 304 437 303 438 302 438 301 439 300 439 299 440 298 440 297 441 296 441 294 442 293 442 292 443 291 443 289 444 288 444 287 445 286 445 284 446 283 446 281 447 280 447 278 448 277 448 274 449 273 449 270 450 269 450 267 451 266 451 262 452 261 452 256 453 255 453 248 454 247 454 238 455 237 455 204 454 203 454 194 453 193 453 187 452 186 452 180 451 179 451 175 450 174 450 170 449 169 449 166 448 165 448 161 447 160 447 157 446 156 446 154 445 153 445 150 444 149 444 146 443 145 443 143 442 142 442 140 441 139 441 136 440 135 440 134 439 133 439 131 438 130 438 128 437 127 437 126 436 125 436 124 435 123 435 120 434 119 " style="stroke:pink"/><path d="M460 115 460 117 " style="stroke:pink"/><path d="M461 108 461 112 462 113 462 115 463 116 463 117 462 118 462 120 464 122 464 124 465 125 465 128 466 129 466 133 467 134 466 135 466 136 467 137 467 138 468 139 468 144 469 145 469 147 470 148 470 150 471 151 471 154 472 155 472 160 473 161 473 162 474 163 474 168 475 169 475 174 476 175 476 178 477 179 477 183 478 184 478 187 479 188 479 193 480 194 480 197 481 198 481 202 482 203 482 208 483 209 483 212 484 213 484 217 485 218 485 221 486 222 486 227 487 228 487 232 488 233 488 238 489 239 489 245 490 246 490 250 491 251 491 256 492 257 492 260 493 261 493 264 494 265 494 272 495 273 495 276 496 277 496 280 497 281 497 284 498 285 498 290 499 291 499 295 500 296 500 300 501 301 501 305 502 306 502 309 503 310 503 314 504 315 504 320 505 321 505 325 506 326 506 330 507 331 507 335 508 336 508 340 509 341 509 347 510 348 510 350 511 351 511 356 512 357 512 361 513 362 513 366 514 367 514 372 515 373 515 376 516 377 516 381 517 382 517 388 518 389 518 392 519 393 519 397 520 398 520 403 521 404 521 408 522 409 522 411 523 412 523 418 524 419 524 420 525 421 525 425 526 426 526 429 527 430 527 434 528 435 528 437 529 438 529 442 530 443 530 445 531 446 531 448 532 449 532 452 533 453 533 456 534 457 534 459 535 460 535 464 536 465 536 467 537 468 537 471 538 472 538 475 539 476 539 479 540 480 540 482 541 483 541 486 542 487 542 490 543 491 543 494 544 495 544 499 545 500 545 503 546 504 546 507 547 508 547 512 548 513 548 517 549 518 549 520 550 521 550 526 551 527 551 530 552 531 552 535 553 536 553 540 554 541 554 545 555 546 555 552 553 554 553 559 551 561 551 562 547 566 546 565 544 565 543 564 542 565 540 565 539 566 538 566 537 567 536 567 535 568 534 568 533 569 532 569 531 570 530 570 529 571 528 571 527 572 526 572 525 573 524 573 523 574 521 574 520 575 519 575 518 576 517 576 516 577 515 577 514 578 513 578 512 579 511 579 510 580 509 580 508 581 507 581 506 582 505 582 504 583 503 583 502 584 501 584 500 585 499 585 498 586 496 586 494 588 492 588 491 589 490 589 489 590 488 590 487 591 486 591 485 592 484 592 483 593 482 593 481 594 480 594 479 595 478 595 477 596 476 596 475 597 474 597 473 598 472 598 471 599 470 599 469 600 468 600 467 601 465 601 463 603 462 603 461 604 459 604 458 605 457 605 456 606 455 606 454 607 453 607 452 608 451 608 450 609 449 609 448 610 447 610 446 611 445 611 444 612 443 612 442 613 441 613 440 614 439 614 438 615 437 615 436 616 434 616 433 617 432 617 431 618 430 618 429 619 428 619 426 621 424 621 423 622 422 622 421 623 420 623 419 624 418 624 417 625 416 625 415 626 414 626 413 627 412 627 411 628 410 628 409 629 408 629 407 630 406 630 405 631 404 631 403 632 402 632 401 633 399 633 398 634 397 634 396 635 395 635 394 636 393 636 392 637 391 637 390 638 389 638 388 639 387 639 386 640 385 640 384 641 383 641 382 642 381 642 380 643 379 643 378 644 377 644 376 645 375 645 374 646 373 646 372 647 370 647 368 649 367 649 366 650 364 650 363 651 362 651 361 652 360 652 359 653 358 653 357 654 356 654 355 655 354 655 353 656 352 656 351 657 350 657 349 658 348 658 347 659 346 659 345 660 344 660 343 661 342 661 341 662 340 662 339 663 338 663 337 664 336 664 335 665 334 665 333 666 332 666 331 667 330 667 329 668 328 668 327 669 326 669 325 670 323 670 322 671 321 671 320 672 319 672 318 673 317 673 316 674 315 674 314 675 313 675 312 676 311 676 310 677 309 677 308 678 307 678 306 679 305 679 304 680 303 680 302 681 301 681 300 682 299 682 298 683 297 683 296 684 295 684 294 685 293 685 292 686 291 686 290 687 289 687 288 688 286 688 285 689 284 689 282 691 280 691 279 692 278 692 277 693 276 693 273 696 274 697 274 701 273 702 273 703 272 704 272 705 267 710 266 710 265 711 263 711 262 712 259 712 258 713 256 713 255 714 253 714 252 715 250 715 249 716 247 716 246 717 243 717 242 718 240 718 239 719 237 719 236 720 234 720 233 721 230 721 229 722 227 722 226 723 224 723 223 724 221 724 220 725 218 725 217 726 215 726 214 727 212 727 211 728 209 728 208 729 206 729 205 730 202 730 201 731 199 731 198 732 195 732 191 728 190 728 186 724 185 724 181 720 180 720 177 717 176 717 173 714 172 714 168 710 167 710 164 707 163 707 160 704 159 704 157 702 156 702 153 699 152 699 149 696 148 696 145 693 144 693 142 691 141 691 138 688 137 688 135 686 134 686 131 683 130 683 128 681 127 681 125 679 124 679 121 676 120 676 118 674 117 674 115 672 114 672 111 669 110 669 108 667 107 667 105 665 104 665 101 662 100 662 98 660 97 660 95 658 94 658 91 655 90 655 88 653 87 653 85 651 84 651 81 648 80 648 78 646 77 646 75 644 74 644 72 642 71 642 68 639 67 639 65 637 64 637 61 634 60 634 57 631 56 631 54 629 53 629 50 626 50 624 51 623 51 622 52 621 52 620 53 619 53 618 54 617 54 616 56 614 56 613 57 612 57 611 59 609 59 608 60 607 60 606 61 605 61 604 63 602 63 601 64 600 64 599 66 597 66 596 67 595 67 594 69 592 69 591 70 590 70 589 72 587 72 586 73 585 73 584 74 583 74 582 76 580 76 579 77 578 77 577 78 576 78 575 80 573 80 572 81 571 81 570 83 568 83 567 84 566 84 565 86 563 86 562 87 561 87 560 89 558 89 557 90 556 90 555 91 554 91 553 93 551 93 550 94 549 94 548 96 546 96 545 97 544 97 543 99 541 99 540 100 539 100 538 101 537 101 536 103 534 103 533 104 532 104 531 106 529 106 528 107 527 107 526 109 524 109 523 110 522 110 521 112 519 112 518 113 517 113 516 114 515 114 514 116 512 116 511 118 509 118 508 119 507 119 506 120 505 120 504 122 502 122 501 123 500 123 499 125 497 125 496 126 495 126 494 128 492 128 491 129 490 129 489 131 487 131 486 132 485 132 484 134 482 134 481 135 480 135 479 137 477 137 476 138 475 138 474 140 472 140 471 141 470 141 469 143 467 143 466 144 465 144 464 145 463 145 462 147 460 147 459 148 458 148 457 150 455 150 454 151 453 151 452 153 450 153 449 154 448 154 447 156 445 156 444 157 443 157 442 158 441 158 440 160 438 160 437 161 436 161 435 163 433 163 432 166 429 169 429 170 430 172 430 173 431 174 431 176 433 177 433 178 434 179 434 180 435 181 435 183 437 184 437 187 440 188 440 190 442 192 442 196 446 196 448 197 449 197 450 198 451 198 450 196 448 196 445 194 443 193 443 192 442 191 442 189 440 188 440 185 437 184 437 182 435 181 435 180 434 179 434 178 433 177 433 175 431 173 431 172 430 170 430 169 429 165 429 163 431 163 432 161 434 161 435 160 436 160 437 158 439 158 440 157 441 157 442 156 443 156 444 154 446 154 447 153 448 153 449 151 451 151 452 150 453 150 454 148 456 148 457 147 458 147 459 145 461 145 462 144 463 144 464 143 465 143 466 141 468 141 469 140 470 140 471 138 473 138 474 137 475 137 476 135 478 135 479 134 480 134 481 132 483 132 484 131 485 131 486 129 488 129 489 128 490 128 491 126 493 126 494 125 495 125 496 123 498 123 499 122 500 122 501 120 503 120 504 119 505 119 506 118 507 118 508 116 510 116 511 114 513 114 514 113 515 113 516 112 517 112 518 110 520 110 521 109 522 109 523 107 525 107 526 106 527 106 528 104 530 104 531 103 532 103 533 101 535 101 536 100 537 100 538 99 539 99 540 97 542 97 543 96 544 96 545 94 547 94 548 93 549 93 550 91 552 91 553 90 554 90 555 89 556 89 557 87 559 87 560 86 561 86 562 84 564 84 565 83 566 83 567 81 569 81 570 80 571 80 572 79 573 79 574 77 576 77 577 76 578 76 579 74 581 74 582 73 583 73 584 72 585 72 586 70 588 70 589 69 590 69 591 67 593 67 594 66 595 66 596 64 598 64 599 63 600 63 601 61 603 61 604 60 605 60 606 59 607 59 608 57 610 57 611 56 612 56 613 54 615 54 616 53 617 53 618 52 619 52 620 51 621 51 622 50 623 50 625 49 626 52 629 53 629 55 631 56 631 59 634 60 634 63 637 64 637 66 639 67 639 70 642 71 642 73 644 74 644 76 646 77 646 79 648 80 648 83 651 84 651 86 653 87 653 89 655 90 655 92 657 93 657 96 660 97 660 99 662 100 662 103 665 104 665 106 667 107 667 109 669 110 669 113 672 114 672 116 674 117 674 119 676 120 676 123 679 124 679 126 681 127 681 129 683 130 683 133 686 134 686 136 688 137 688 140 691 141 691 143 693 144 693 147 696 148 696 151 699 152 699 155 702 156 702 158 704 159 704 162 707 163 707 166 710 167 710 171 714 172 714 174 716 175 716 179 720 180 720 184 724 185 724 189 728 190 728 194 732 198 732 199 731 201 731 202 730 205 730 206 729 208 729 209 728 211 728 212 727 214 727 215 726 217 726 218 725 220 725 221 724 223 724 224 723 226 723 227 722 229 722 230 721 233 721 234 720 236 720 237 719 239 719 240 718 242 718 243 717 246 717 247 716 249 716 250 715 252 715 253 714 255 714 256 713 258 713 259 712 262 712 263 711 265 711 266 710 268 710 272 706 272 705 273 704 273 702 274 701 274 696 277 693 278 693 279 692 280 692 281 691 282 691 283 690 284 690 285 689 286 689 287 688 289 688 290 687 291 687 292 686 293 686 294 685 295 685 296 684 297 684 298 683 299 683 300 682 301 682 302 681 303 681 304 680 305 680 306 679 307 679 308 678 309 678 310 677 311 677 312 676 313 676 314 675 315 675 316 674 317 674 318 673 319 673 320 672 321 672 322 671 323 671 324 670 326 670 327 669 328 669 329 668 330 668 331 667 332 667 333 666 334 666 335 665 336 665 337 664 338 664 339 663 340 663 341 662 342 662 343 661 344 661 345 660 346 660 347 659 348 659 349 658 350 658 351 657 352 657 353 656 354 656 355 655 356 655 357 654 358 654 359 653 360 653 361 652 362 652 363 651 364 651 365 650 367 650 369 648 370 648 371 647 373 647 374 646 375 646 376 645 377 645 378 644 379 644 380 643 381 643 382 642 383 642 384 641 385 641 386 640 387 640 388 639 389 639 390 638 391 638 392 637 393 637 394 636 395 636 396 635 397 635 398 634 399 634 400 633 402 633 403 632 404 632 405 631 406 631 407 630 408 630 410 628 412 628 413 627 414 627 415 626 416 626 417 625 418 625 419 624 420 624 421 623 422 623 423 622 424 622 425 621 427 621 429 619 430 619 431 618 432 618 433 617 434 617 435 616 437 616 438 615 439 615 440 614 441 614 442 613 443 613 444 612 445 612 446 611 447 611 448 610 449 610 450 609 451 609 452 608 453 608 454 607 455 607 456 606 457 606 458 605 459 605 460 604 462 604 463 603 464 603 466 601 467 601 468 600 470 600 471 599 472 599 473 598 474 598 475 597 476 597 477 596 478 596 479 595 480 595 481 594 482 594 483 593 484 593 485 592 486 592 487 591 488 591 489 590 490 590 491 589 492 589 493 588 495 588 497 586 499 586 500 585 501 585 503 583 505 583 506 582 507 582 508 581 509 581 510 580 511 580 512 579 513 579 514 578 515 578 516 577 517 577 518 576 519 576 520 575 521 575 522 574 524 574 525 573 526 573 527 572 528 572 529 571 530 571 531 570 532 570 533 569 534 569 535 568 536 568 537 567 538 567 539 566 540 566 541 565 542 565 543 564 544 565 546 565 547 566 548 565 549 565 551 563 551 562 553 560 553 554 555 552 555 546 554 545 554 541 553 540 553 536 552 535 552 531 551 530 551 527 550 526 550 521 549 520 549 518 548 517 548 513 547 512 547 508 546 507 546 504 545 503 545 500 544 499 544 495 543 494 543 491 542 490 542 487 541 486 541 483 540 482 540 480 539 479 539 476 538 475 538 472 537 471 537 468 536 467 536 465 535 464 535 460 534 459 534 457 533 456 533 453 532 452 532 449 531 448 531 446 530 445 530 443 529 442 529 438 528 437 528 435 527 434 527 430 526 429 526 426 525 425 525 421 524 420 524 419 523 418 523 412 522 411 522 409 521 408 521 404 520 403 520 398 519 397 519 393 518 392 518 389 517 388 517 382 516 381 516 377 515 376 515 373 514 372 514 367 513 366 513 362 512 361 512 357 511 356 511 351 510 350 510 348 509 347 509 341 508 340 508 336 507 335 507 331 506 330 506 326 505 325 505 321 504 320 504 315 503 314 503 310 502 309 502 306 501 305 501 301 500 300 500 296 499 295 499 291 498 290 498 285 497 284 497 281 496 280 496 277 495 276 495 273 494 272 494 265 493 264 493 261 492 260 492 257 491 256 491 251 490 250 490 246 489 245 489 239 488 238 488 233 487 232 487 228 486 227 486 222 485 221 485 218 484 217 484 213 483 212 483 209 482 208 482 203 481 202 481 198 480 197 480 194 479 193 479 188 478 187 478 184 477 183 477 179 476 178 476 175 475 174 475 169 474 168 474 163 473 162 473 161 472 160 472 155 471 154 471 151 470 150 470 148 469 147 469 145 468 144 468 139 467 138 467 137 466 136 466 135 467 134 466 133 466 129 465 128 465 125 464 124 464 122 462 120 462 118 463 117 463 116 462 115 462 113 461 112 " style="stroke:pink"/><path d="M458 97 458 99 459 100 459 103 458 104 457 103 457 102 457 103 458 104 458 109 459 110 458 109 458 104 459 103 459 100 458 99 " style="stroke:pink"/><path d="M456 89 456 94 455 95 455 97 456 98 456 99 456 98 455 97 455 95 456 94 " style="stroke:pink"/><path d="M454 84 455 85 455 87 455 85 " style="stroke:pink"/><path d="M451 72 452 73 452 75 452 73 " style="stroke:pink"/><path d="M451 69 " style="stroke:pink"/><path d="M444 65 443 66 441 66 440 67 437 67 436 68 433 68 432 69 430 69 429 70 426 70 425 71 422 71 421 72 418 72 417 73 414 73 413 74 410 74 409 75 406 75 405 76 402 76 401 77 398 77 397 78 394 78 393 79 390 79 389 80 386 80 385 81 381 81 380 82 378 82 377 83 374 83 373 84 370 84 369 85 366 85 365 86 362 86 361 87 359 87 358 88 355 88 354 89 352 89 351 90 348 90 347 91 344 91 343 92 340 92 339 93 337 93 336 94 333 94 332 95 330 95 329 96 326 96 325 97 322 97 321 98 319 98 318 99 315 99 314 100 311 100 310 101 308 101 307 102 304 102 303 103 300 103 299 104 297 104 296 105 293 105 292 106 290 106 289 107 286 107 285 108 282 108 281 109 278 109 277 110 275 110 274 111 271 111 270 112 267 112 266 113 264 113 263 114 260 114 259 115 256 115 255 116 253 116 252 117 249 117 248 118 245 118 244 119 242 119 241 120 238 120 237 121 235 121 234 122 231 122 230 123 228 123 227 124 224 124 223 125 221 125 220 126 217 126 216 127 213 127 212 128 210 128 209 129 206 129 205 130 202 130 201 131 198 131 197 132 194 132 193 133 190 133 189 134 186 134 185 135 182 135 181 136 178 136 177 137 173 137 172 138 169 138 168 139 164 139 163 140 160 140 159 141 156 141 155 142 151 142 150 143 147 143 146 144 143 144 142 145 140 145 139 146 137 146 136 147 134 147 134 165 133 166 133 213 132 214 132 260 131 261 131 263 132 264 132 265 131 266 131 331 130 332 130 377 131 378 135 378 136 377 138 377 139 376 142 376 143 375 145 375 146 374 148 374 149 373 151 373 152 372 154 372 155 371 157 371 158 370 160 370 161 369 163 369 164 368 166 368 167 367 169 367 170 366 172 366 173 365 175 365 176 364 178 364 179 363 181 363 182 362 184 362 185 361 187 361 188 360 190 360 191 359 193 359 194 358 197 358 198 357 200 357 201 356 203 356 204 355 205 355 207 357 205 359 205 360 204 361 204 362 202 364 202 365 201 366 201 367 199 369 199 370 198 371 198 372 197 373 197 374 195 376 195 377 194 378 194 379 192 381 192 382 191 383 191 384 190 385 190 386 188 388 188 389 187 390 187 393 188 394 190 394 191 395 192 395 193 396 194 396 195 397 196 397 197 398 198 398 199 399 200 399 202 401 203 401 204 402 204 403 205 404 205 405 204 406 204 424 203 425 203 428 204 429 204 445 203 446 199 442 199 441 195 437 194 437 189 432 188 432 186 430 185 430 183 428 182 428 180 426 179 426 178 425 177 425 176 424 175 424 174 423 172 423 171 422 170 422 169 423 168 423 168 425 170 425 171 426 172 426 173 427 174 427 175 428 176 428 177 429 178 429 180 431 181 431 182 432 183 432 185 434 186 434 188 436 185 433 184 433 182 431 181 431 179 429 178 429 177 428 175 428 174 427 173 427 172 426 171 426 170 425 169 425 168 424 170 422 171 423 173 423 174 424 175 424 176 425 177 425 178 426 179 426 181 428 182 428 184 430 185 430 187 432 188 432 193 437 194 437 199 442 199 443 200 443 201 444 201 446 202 445 203 446 203 447 204 448 204 449 203 450 203 453 204 454 203 455 203 456 204 456 204 454 203 453 203 450 204 449 204 429 203 428 203 425 204 424 204 406 205 405 205 404 204 403 204 401 203 401 201 399 200 399 199 398 198 398 197 397 196 397 195 396 194 396 193 395 191 395 190 394 189 394 187 392 187 391 188 390 188 389 190 387 190 386 191 385 191 384 192 383 192 382 194 380 194 379 195 378 195 377 197 375 197 374 198 373 198 372 199 371 199 370 201 368 201 367 202 366 202 365 204 363 204 362 205 361 205 360 208 357 208 356 207 357 205 355 206 354 205 355 204 355 203 356 201 356 200 357 198 357 197 358 194 358 193 359 191 359 190 360 188 360 187 361 185 361 184 362 182 362 181 363 179 363 178 364 176 364 175 365 173 365 172 366 170 366 169 367 167 367 166 368 164 368 163 369 161 369 160 370 158 370 157 371 155 371 154 372 152 372 151 373 149 373 148 374 146 374 145 375 143 375 142 376 139 376 138 377 136 377 135 378 132 378 130 376 130 332 131 331 131 266 132 265 132 264 131 263 131 261 132 260 132 214 133 213 133 166 134 165 134 148 135 147 136 147 137 146 139 146 140 145 142 145 143 144 146 144 147 143 150 143 151 142 155 142 156 141 159 141 160 140 163 140 164 139 168 139 169 138 172 138 173 137 177 137 178 136 181 136 182 135 185 135 186 134 189 134 190 133 193 133 194 132 197 132 198 131 201 131 202 130 205 130 206 129 209 129 210 128 212 128 213 127 216 127 217 126 220 126 221 125 223 125 224 124 227 124 228 123 230 123 231 122 234 122 235 121 237 121 238 120 241 120 242 119 244 119 245 118 248 118 249 117 252 117 253 116 255 116 256 115 259 115 260 114 263 114 264 113 266 113 267 112 270 112 271 111 274 111 275 110 277 110 278 109 281 109 282 108 285 108 286 107 289 107 290 106 292 106 293 105 296 105 297 104 299 104 300 103 303 103 304 102 307 102 308 101 310 101 311 100 314 100 315 99 318 99 319 98 321 98 322 97 325 97 326 96 329 96 330 95 332 95 333 94 336 94 337 93 339 93 340 92 343 92 344 91 347 91 348 90 351 90 352 89 354 89 355 88 358 88 359 87 361 87 362 86 365 86 366 85 369 85 370 84 373 84 374 83 377 83 378 82 380 82 381 81 385 81 386 80 389 80 390 79 393 79 394 78 397 78 398 77 401 77 402 76 405 76 406 75 409 75 410 74 413 74 414 73 417 73 418 72 421 72 422 71 425 71 426 70 429 70 430 69 432 69 433 68 436 68 437 67 440 67 441 66 443 66 444 65 445 66 446 66 447 67 447 69 448 70 448 72 449 73 449 76 450 77 450 78 451 79 451 81 452 82 452 86 453 87 453 90 454 91 454 92 454 91 453 90 453 87 452 86 452 82 451 81 451 79 450 78 450 77 449 76 449 73 448 72 448 70 447 69 448 68 447 67 447 66 445 66 " style="stroke:pink"/><path d="M598 0 598 2 597 3 597 5 598 6 598 7 597 8 597 15 598 16 598 17 597 18 597 196 596 197 596 201 597 202 596 203 596 295 595 296 595 374 594 375 594 379 595 380 595 382 594 383 594 428 593 429 593 448 594 449 594 451 593 452 593 455 594 456 594 461 593 462 593 466 594 467 594 468 593 469 593 537 592 538 592 606 591 607 591 609 592 610 591 611 591 667 590 668 590 717 589 718 589 755 588 756 588 799 588 756 589 755 589 718 590 717 590 668 591 667 591 611 592 610 591 609 591 607 592 606 592 538 593 537 593 469 594 468 594 467 593 466 593 462 594 461 594 456 593 455 593 452 594 451 594 449 593 448 593 429 594 428 594 383 595 382 595 380 594 379 594 375 595 374 595 296 596 295 596 203 597 202 596 201 596 197 597 196 597 18 598 17 598 16 597 15 597 8 598 7 598 6 597 5 597 3 598 2 " style="stroke:pink"/><path d="M2 0 1 1 1 10 2 11 1 12 1 15 2 16 2 18 1 19 1 21 2 22 1 23 2 24 2 25 1 26 1 36 2 37 2 40 1 41 1 49 2 50 1 51 2 52 1 53 1 57 2 58 1 59 1 69 2 70 2 71 1 72 1 74 0 75 1 76 1 77 0 78 1 79 1 91 2 92 2 93 1 94 1 96 2 97 1 98 2 99 2 100 1 101 2 102 2 103 1 104 1 120 2 121 1 122 1 127 2 128 1 129 2 130 1 131 1 134 2 135 2 137 1 138 1 140 2 141 1 142 1 146 1 142 2 141 1 140 1 138 2 137 2 135 1 134 1 131 2 130 1 129 2 128 1 127 1 122 2 121 1 120 1 104 2 103 2 102 1 101 2 100 2 99 1 98 2 97 1 96 1 94 2 93 2 92 1 91 1 72 2 71 2 70 1 69 1 59 2 58 1 57 1 53 2 52 1 51 2 50 1 49 1 41 2 40 2 37 1 36 1 26 2 25 2 24 1 23 2 22 1 21 1 19 2 18 2 16 1 15 1 12 2 11 1 10 1 1 " style="stroke:pink"/></svg>